<svg width="20" height="20" viewBox="0 0 20 20" fill="none" xmlns="http://www.w3.org/2000/svg">
<path fill-rule="evenodd" clip-rule="evenodd" d="M15 7.49984C15.6377 7.4998 16.2513 7.74344 16.7152 8.18091C17.1792 8.61837 17.4584 9.21659 17.4958 9.85317L17.5 9.99984V12.4998C17.5 13.0332 17.1842 13.449 16.765 13.639L16.6667 13.6782V16.6665C16.6668 17.087 16.508 17.492 16.2221 17.8003C15.9362 18.1086 15.5443 18.2975 15.125 18.329L15 18.3332H5C4.57952 18.3333 4.17453 18.1745 3.86621 17.8886C3.55789 17.6027 3.36904 17.2108 3.3375 16.7915L3.33333 16.6665V13.679C3.10842 13.6006 2.91081 13.4591 2.76409 13.2714C2.61737 13.0838 2.52772 12.8579 2.50583 12.6207L2.5 12.4998V9.99984C2.49996 9.36216 2.7436 8.74858 3.18107 8.28462C3.61854 7.82066 4.21676 7.54141 4.85333 7.504L5 7.49984H15ZM14.9442 13.0832C14.8149 12.9862 14.6602 12.9288 14.4989 12.9182C14.3376 12.9075 14.1767 12.944 14.0358 13.0232L13.9442 13.0832L13.7225 13.2498C13.3136 13.5567 12.8204 13.7308 12.3095 13.7487C11.7985 13.7665 11.2944 13.6274 10.865 13.3498L10.7225 13.2498L10.5 13.0832C10.3707 12.9862 10.216 12.9288 10.0547 12.9182C9.89347 12.9075 9.73258 12.944 9.59167 13.0232L9.5 13.0832L9.2775 13.2498C8.86865 13.5565 8.37563 13.7305 7.86487 13.7484C7.3541 13.7663 6.85013 13.6272 6.42083 13.3498L6.2775 13.2498L6.05583 13.0832C5.92656 12.9862 5.77186 12.9288 5.61058 12.9182C5.44931 12.9075 5.28841 12.944 5.1475 13.0232L5.05583 13.0832L5 13.1248V16.6665H15V13.1248L14.9442 13.0832ZM15 9.1665H5C4.77899 9.1665 4.56702 9.2543 4.41074 9.41058C4.25446 9.56686 4.16667 9.77882 4.16667 9.99984V11.6707C4.59716 11.3831 5.10633 11.2362 5.62385 11.2504C6.14137 11.2646 6.64173 11.4391 7.05583 11.7498L7.2775 11.9165C7.42175 12.0247 7.59719 12.0832 7.7775 12.0832C7.95781 12.0832 8.13325 12.0247 8.2775 11.9165L8.5 11.7498C8.93274 11.4253 9.45907 11.2498 10 11.2498C10.5409 11.2498 11.0673 11.4253 11.5 11.7498L11.7225 11.9165C11.8667 12.0247 12.0422 12.0832 12.2225 12.0832C12.4028 12.0832 12.5783 12.0247 12.7225 11.9165L12.9442 11.7498C13.3583 11.4391 13.8586 11.2646 14.3762 11.2504C14.8937 11.2362 15.4028 11.3831 15.8333 11.6707V9.99984C15.8333 9.77882 15.7455 9.56686 15.5893 9.41058C15.433 9.2543 15.221 9.1665 15 9.1665ZM10.5 1.83317C10.8441 2.1028 11.1639 2.402 11.4558 2.72734C11.8925 3.21817 12.5 4.04567 12.5 4.99984C12.5 5.66288 12.2366 6.29876 11.7678 6.7676C11.2989 7.23645 10.663 7.49984 10 7.49984C9.33696 7.49984 8.70107 7.23645 8.23223 6.7676C7.76339 6.29876 7.5 5.66288 7.5 4.99984C7.5 4.04567 8.10833 3.21817 8.54417 2.72734C8.83611 2.402 9.15594 2.1028 9.5 1.83317C9.64425 1.72499 9.81969 1.6665 10 1.6665C10.1803 1.6665 10.3558 1.72499 10.5 1.83317ZM10 3.6115C9.92745 3.68377 9.85714 3.75825 9.78917 3.83484C9.3925 4.2815 9.16667 4.704 9.16667 4.99984C9.16667 5.22085 9.25446 5.43281 9.41074 5.58909C9.56702 5.74537 9.77899 5.83317 10 5.83317C10.221 5.83317 10.433 5.74537 10.5893 5.58909C10.7455 5.43281 10.8333 5.22085 10.8333 4.99984C10.8333 4.704 10.6083 4.2815 10.2108 3.83484C10.1429 3.75825 10.0725 3.68377 10 3.6115Z" fill="black"/>
</svg>
