<svg width="28" height="28" viewBox="0 0 28 28" fill="none" xmlns="http://www.w3.org/2000/svg">
<path d="M11.4 1.40002V11.2H14.2V8.40002C14.2 6.27202 16.23 4.20002 18.4 4.20002V5.40402C19.17 4.67602 20.164 4.20002 21.2 4.20002V8.40002H22.6C24.14 8.40002 25.4 9.66002 25.4 11.2C25.4 12.74 24.14 14 22.6 14H21.2V22.4C21.2 23.17 20.57 23.8 19.8 23.8C19.03 23.8 18.4 23.17 18.4 22.4V19.348C17.966 19.502 17.49 19.6 17 19.6V22.4C17 23.17 16.37 23.8 15.6 23.8C14.83 23.8 14.2 23.17 14.2 22.4V19.6H11.4V22.4C11.4 23.17 10.77 23.8 10 23.8C9.23 23.8 8.6 23.17 8.6 22.4V19.6C8.11 19.6 7.634 19.502 7.2 19.348V22.4C7.2 23.17 6.57 23.8 5.8 23.8C5.03 23.8 4.4 23.17 4.4 22.4V16.8H3V15.4C3 13.076 4.876 11.2 7.2 11.2H10V1.40002H11.4ZM18.4 11.2C19.17 11.2 19.8 10.57 19.8 9.80002C19.8 9.03002 19.17 8.40002 18.4 8.40002C17.63 8.40002 17 9.03002 17 9.80002C17 10.57 17.63 11.2 18.4 11.2Z" fill="#F6F4F0"/>
</svg>
