<svg width="17" height="17" viewBox="0 0 17 17" fill="none" xmlns="http://www.w3.org/2000/svg">
<path d="M8.1074 11.7249L5.30359 13.414C5.17972 13.4928 5.05023 13.5266 4.91511 13.5153C4.77998 13.5041 4.66175 13.459 4.56041 13.3802C4.45907 13.3014 4.38024 13.203 4.32394 13.085C4.26764 12.967 4.25638 12.8345 4.29016 12.6877L5.03334 9.49541L2.55045 7.35033C2.43785 7.24898 2.36758 7.13345 2.33966 7.00373C2.31173 6.87402 2.32006 6.74745 2.36465 6.62404C2.40924 6.50062 2.47681 6.39928 2.56734 6.32001C2.65787 6.24074 2.78173 6.19007 2.93893 6.168L6.21567 5.88086L7.48245 2.87436C7.53875 2.73924 7.62613 2.6379 7.74459 2.57034C7.86305 2.50277 7.98398 2.46899 8.1074 2.46899C8.23081 2.46899 8.35174 2.50277 8.4702 2.57034C8.58866 2.6379 8.67604 2.73924 8.73234 2.87436L9.99912 5.88086L13.2759 6.168C13.4335 6.19052 13.5574 6.24119 13.6475 6.32001C13.7375 6.39883 13.8051 6.50017 13.8501 6.62404C13.8952 6.7479 13.9037 6.87469 13.8758 7.00441C13.8479 7.13413 13.7774 7.24943 13.6643 7.35033L11.1815 9.49541L11.9246 12.6877C11.9584 12.8341 11.9472 12.9665 11.8909 13.085C11.8345 13.2034 11.7557 13.3018 11.6544 13.3802C11.553 13.4586 11.4348 13.5036 11.2997 13.5153C11.1646 13.527 11.0351 13.4933 10.9112 13.414L8.1074 11.7249Z" fill="black"/>
</svg>
