<svg width="19" height="19" viewBox="0 0 19 19" fill="none" xmlns="http://www.w3.org/2000/svg">
<path d="M7.521 14.0519C7.36352 14.0519 7.2125 14.1145 7.10115 14.2258C6.9898 14.3372 6.92725 14.4882 6.92725 14.6457C6.92725 14.8031 6.9898 14.9542 7.10115 15.0655C7.2125 15.1769 7.36352 15.2394 7.521 15.2394V14.0519ZM11.4793 15.2394C11.6368 15.2394 11.7878 15.1769 11.8992 15.0655C12.0105 14.9542 12.0731 14.8031 12.0731 14.6457C12.0731 14.4882 12.0105 14.3372 11.8992 14.2258C11.7878 14.1145 11.6368 14.0519 11.4793 14.0519V15.2394ZM8.90641 17.4165C8.90641 17.574 8.96897 17.725 9.08032 17.8363C9.19167 17.9477 9.34269 18.0103 9.50016 18.0103C9.65764 18.0103 9.80866 17.9477 9.92001 17.8363C10.0314 17.725 10.0939 17.574 10.0939 17.4165H8.90641ZM8.90641 12.6665V14.6457H10.0939V12.6665H8.90641ZM9.50016 14.0519H7.521V15.2394H9.50016V14.0519ZM11.4793 14.0519H9.50016V15.2394H11.4793V14.0519ZM8.90641 14.6457V17.4165H10.0939V14.6457H8.90641Z" fill="black"/>
<path d="M6.72928 2.32445C7.89366 1.65249 9.26261 1.42671 10.5811 1.68917C11.8996 1.95163 13.0777 2.68443 13.896 3.75106C14.7143 4.8177 15.117 6.14542 15.029 7.4869C14.941 8.82839 14.3684 10.0921 13.4177 11.0427C12.4671 11.9934 11.2034 12.566 9.8619 12.654C8.52042 12.742 7.1927 12.3393 6.12606 11.521C5.05943 10.7027 4.32663 9.5246 4.06417 8.2061C3.80171 6.88761 4.02749 5.51866 4.69945 4.35428" stroke="black" stroke-width="1.1875" stroke-linecap="round"/>
</svg>
