<svg width="40" height="40" viewBox="0 0 40 40" fill="none" xmlns="http://www.w3.org/2000/svg">
<path d="M16.1654 26.528C13.2006 26.528 10.6918 25.501 8.63876 23.4469C6.58575 21.3928 5.55871 18.8839 5.55762 15.9203C5.55653 12.9566 6.58358 10.4477 8.63876 8.39365C10.6939 6.33955 13.2028 5.3125 16.1654 5.3125C19.1279 5.3125 21.6374 6.33955 23.6936 8.39365C25.7499 10.4477 26.7764 12.9566 26.7731 15.9203C26.7731 17.117 26.5827 18.2458 26.202 19.3066C25.8212 20.3674 25.3044 21.3057 24.6516 22.1217L33.7906 31.2607C34.0898 31.5599 34.2394 31.9407 34.2394 32.4031C34.2394 32.8655 34.0898 33.2463 33.7906 33.5455C33.4914 33.8447 33.1106 33.9943 32.6482 33.9943C32.1858 33.9943 31.805 33.8447 31.5058 33.5455L22.3668 24.4065C21.5509 25.0593 20.6125 25.576 19.5517 25.9568C18.4909 26.3376 17.3622 26.528 16.1654 26.528ZM16.1654 23.2641C18.2053 23.2641 19.9396 22.5504 21.3681 21.123C22.7966 19.6955 23.5103 17.9613 23.5092 15.9203C23.5081 13.8792 22.7944 12.1455 21.3681 10.7192C19.9417 9.29286 18.2075 8.5786 16.1654 8.57643C14.1232 8.57425 12.3896 9.28851 10.9643 10.7192C9.53906 12.1499 8.82481 13.8836 8.82154 15.9203C8.81828 17.9569 9.53254 19.6912 10.9643 21.123C12.3961 22.5547 14.1298 23.2684 16.1654 23.2641Z" fill="#4DA1A9"/>
</svg>
