<svg width="94" height="94" viewBox="0 0 94 94" fill="none" xmlns="http://www.w3.org/2000/svg">
<path fill-rule="evenodd" clip-rule="evenodd" d="M8.18652 19.8185C8.18652 16.7172 9.41852 13.7429 11.6115 11.55C13.8044 9.35699 16.7787 8.125 19.88 8.125H74.4497C77.5511 8.125 80.5254 9.35699 82.7183 11.55C84.9113 13.7429 86.1433 16.7172 86.1433 19.8185V45.1544C86.1429 45.4832 86.101 45.8106 86.0185 46.1289C86.101 46.4472 86.1429 46.7746 86.1433 47.1034V74.3882C86.1433 77.4895 84.9113 80.4638 82.7183 82.6568C80.5254 84.8497 77.5511 86.0817 74.4497 86.0817H19.88C16.7787 86.0817 13.8044 84.8497 11.6115 82.6568C9.41852 80.4638 8.18652 77.4895 8.18652 74.3882V62.6947C8.18684 62.3659 8.22875 62.0385 8.31125 61.7203C8.22875 61.402 8.18684 61.0746 8.18652 60.7458V19.8185ZM19.8566 58.1342C18.5002 58.1602 17.2087 58.22 15.9822 58.3135V19.8185C15.9822 18.7847 16.3929 17.7933 17.1238 17.0623C17.8548 16.3313 18.8463 15.9207 19.88 15.9207H74.4497C75.4835 15.9207 76.475 16.3313 77.2059 17.0623C77.9369 17.7933 78.3476 18.7847 78.3476 19.8185V43.2679C61.5986 43.8097 49.5036 47.844 41.0063 53.4919C44.2259 54.634 47.8275 56.2594 51.359 58.3876C56.812 61.6618 62.3548 66.2612 66.085 72.3536C66.3522 72.7902 66.5308 73.2752 66.6105 73.7808C66.6903 74.2864 66.6697 74.8028 66.5499 75.3005C66.4301 75.7982 66.2134 76.2674 65.9123 76.6814C65.6112 77.0953 65.2314 77.4459 64.7948 77.7131C64.3582 77.9803 63.8732 78.1589 63.3676 78.2386C62.8619 78.3184 62.3455 78.2978 61.8478 78.178C61.3502 78.0582 60.881 77.8415 60.467 77.5404C60.0531 77.2392 59.7025 76.8595 59.4353 76.4229C56.5665 71.7338 52.1151 67.9334 47.3442 65.0685C42.581 62.2075 37.736 60.4223 34.3761 59.6427C29.6428 58.5631 24.7966 58.0579 19.9424 58.1381H19.8566V58.1342ZM27.59 25.6185C29.3268 24.3935 31.3971 23.7297 33.5225 23.7163C35.1206 23.7163 37.432 24.1646 39.455 25.6185C41.6767 27.2166 43.2671 29.8515 43.2671 33.4609C43.2671 37.0703 41.6767 39.7014 39.455 41.2995C37.7185 42.5258 35.6482 43.191 33.5225 43.2055C31.9243 43.2055 29.6129 42.7573 27.59 41.2995C25.3682 39.7014 23.7779 37.0742 23.7779 33.4609C23.7779 29.8515 25.3682 27.2205 27.59 25.6185Z" fill="#BBDCE5"/>
</svg>
