<svg width="23" height="23" viewBox="0 0 23 23" fill="none" xmlns="http://www.w3.org/2000/svg">
<path d="M11.4997 3.83325C12.5163 3.83325 13.4914 4.23712 14.2103 4.95601C14.9291 5.6749 15.333 6.64992 15.333 7.66659C15.333 8.68325 14.9291 9.65827 14.2103 10.3772C13.4914 11.0961 12.5163 11.4999 11.4997 11.4999C10.483 11.4999 9.50799 11.0961 8.7891 10.3772C8.07021 9.65827 7.66634 8.68325 7.66634 7.66659C7.66634 6.64992 8.07021 5.6749 8.7891 4.95601C9.50799 4.23712 10.483 3.83325 11.4997 3.83325ZM11.4997 13.4166C15.7355 13.4166 19.1663 15.132 19.1663 17.2499V19.1666H3.83301V17.2499C3.83301 15.132 7.26384 13.4166 11.4997 13.4166Z" fill="black"/>
</svg>
