<svg width="26" height="26" viewBox="0 0 26 26" fill="none" xmlns="http://www.w3.org/2000/svg">
<path d="M8.32465 2.13428H17.2897C20.7049 2.13428 23.4798 4.90916 23.4798 8.3244V17.2894C23.4798 18.9311 22.8276 20.5056 21.6667 21.6665C20.5059 22.8274 18.9314 23.4795 17.2897 23.4795H8.32465C4.90941 23.4795 2.13452 20.7047 2.13452 17.2894V8.3244C2.13452 6.68268 2.78669 5.1082 3.94757 3.94732C5.10844 2.78645 6.68292 2.13428 8.32465 2.13428ZM8.1112 4.2688C7.09219 4.2688 6.11493 4.6736 5.39439 5.39414C4.67384 6.11469 4.26905 7.09195 4.26905 8.11095V17.5029C4.26905 19.6267 5.98734 21.345 8.1112 21.345H17.5031C18.5221 21.345 19.4994 20.9402 20.2199 20.2197C20.9405 19.4991 21.3453 18.5219 21.3453 17.5029V8.11095C21.3453 5.9871 19.627 4.2688 17.5031 4.2688H8.1112ZM18.4103 5.8697C18.7641 5.8697 19.1034 6.01025 19.3536 6.26044C19.6038 6.51063 19.7444 6.84996 19.7444 7.20378C19.7444 7.5576 19.6038 7.89692 19.3536 8.14711C19.1034 8.3973 18.7641 8.53786 18.4103 8.53786C18.0565 8.53786 17.7171 8.3973 17.4669 8.14711C17.2168 7.89692 17.0762 7.5576 17.0762 7.20378C17.0762 6.84996 17.2168 6.51063 17.4669 6.26044C17.7171 6.01025 18.0565 5.8697 18.4103 5.8697ZM12.8072 7.47059C14.2224 7.47059 15.5797 8.03281 16.5805 9.03356C17.5813 10.0343 18.1435 11.3916 18.1435 12.8069C18.1435 14.2222 17.5813 15.5795 16.5805 16.5803C15.5797 17.581 14.2224 18.1432 12.8072 18.1432C11.3919 18.1432 10.0346 17.581 9.03381 16.5803C8.03305 15.5795 7.47084 14.2222 7.47084 12.8069C7.47084 11.3916 8.03305 10.0343 9.03381 9.03356C10.0346 8.03281 11.3919 7.47059 12.8072 7.47059ZM12.8072 9.60512C11.958 9.60512 11.1436 9.94245 10.5431 10.5429C9.94269 11.1434 9.60536 11.9577 9.60536 12.8069C9.60536 13.6561 9.94269 14.4705 10.5431 15.0709C11.1436 15.6714 11.958 16.0087 12.8072 16.0087C13.6563 16.0087 14.4707 15.6714 15.0712 15.0709C15.6716 14.4705 16.0089 13.6561 16.0089 12.8069C16.0089 11.9577 15.6716 11.1434 15.0712 10.5429C14.4707 9.94245 13.6563 9.60512 12.8072 9.60512Z" fill="#6D94C5"/>
</svg>
