<svg width="39" height="39" viewBox="0 0 39 39" fill="none" xmlns="http://www.w3.org/2000/svg">
<path d="M22.2131 19.0397V31.5427C22.2766 32.0187 22.1179 32.5264 21.753 32.8596C21.6062 33.0067 21.4318 33.1234 21.2399 33.203C21.048 33.2826 20.8422 33.3236 20.6344 33.3236C20.4266 33.3236 20.2208 33.2826 20.0289 33.203C19.8369 33.1234 19.6626 33.0067 19.5158 32.8596L16.3266 29.6704C16.1536 29.5012 16.0221 29.2942 15.9423 29.0658C15.8625 28.8374 15.8365 28.5936 15.8665 28.3535V19.0397H15.8189L6.67968 7.33016C6.42202 6.99939 6.30576 6.58008 6.3563 6.16385C6.40684 5.74763 6.62008 5.36832 6.94942 5.10883C7.25088 4.8867 7.58408 4.75977 7.93315 4.75977H30.1464C30.4955 4.75977 30.8287 4.8867 31.1302 5.10883C31.4595 5.36832 31.6727 5.74763 31.7233 6.16385C31.7738 6.58008 31.6576 6.99939 31.3999 7.33016L22.2607 19.0397H22.2131Z" fill="#4DA1A9"/>
</svg>
