<svg width="62" height="62" viewBox="0 0 62 62" fill="none" xmlns="http://www.w3.org/2000/svg">
<path d="M40.6875 33.5835C40.6875 33.0696 40.4834 32.5768 40.12 32.2135C39.7567 31.8501 39.2639 31.646 38.75 31.646H23.25C22.7361 31.646 22.2433 31.8501 21.88 32.2135C21.5166 32.5768 21.3125 33.0696 21.3125 33.5835C21.3125 34.0974 21.5166 34.5902 21.88 34.9535C22.2433 35.3169 22.7361 35.521 23.25 35.521H38.75C39.2639 35.521 39.7567 35.3169 40.12 34.9535C40.4834 34.5902 40.6875 34.0974 40.6875 33.5835ZM40.6875 43.9168C40.6875 43.403 40.4834 42.9102 40.12 42.5468C39.7567 42.1835 39.2639 41.9793 38.75 41.9793H23.25C22.7361 41.9793 22.2433 42.1835 21.88 42.5468C21.5166 42.9102 21.3125 43.403 21.3125 43.9168C21.3125 44.4307 21.5166 44.9235 21.88 45.2868C22.2433 45.6502 22.7361 45.8543 23.25 45.8543H38.75C39.2639 45.8543 39.7567 45.6502 40.12 45.2868C40.4834 44.9235 40.6875 44.4307 40.6875 43.9168Z" fill="black"/>
<path fill-rule="evenodd" clip-rule="evenodd" d="M18.0837 5.8125C16.1995 5.8125 14.3925 6.56097 13.0603 7.89326C11.728 9.22555 10.9795 11.0325 10.9795 12.9167V49.0833C10.9795 50.9675 11.728 52.7744 13.0603 54.1067C14.3925 55.439 16.1995 56.1875 18.0837 56.1875H43.917C45.8011 56.1875 47.6081 55.439 48.9404 54.1067C50.2727 52.7744 51.0212 50.9675 51.0212 49.0833V20.584C51.0212 19.5997 50.7008 18.6439 50.1067 17.8586L42.3618 7.60792C41.9404 7.05022 41.3954 6.59783 40.7697 6.2863C40.144 5.97478 39.4545 5.81259 38.7555 5.8125H18.0837ZM14.8545 12.9167C14.8545 11.1342 16.3012 9.6875 18.0837 9.6875H36.8128V21.0464C36.8128 22.1159 37.6808 22.9839 38.7503 22.9839H47.1462V49.0833C47.1462 50.8658 45.6995 52.3125 43.917 52.3125H18.0837C16.3012 52.3125 14.8545 50.8658 14.8545 49.0833V12.9167Z" fill="black"/>
</svg>
