<svg width="64" height="65" viewBox="0 0 64 65" fill="none" xmlns="http://www.w3.org/2000/svg">
<path d="M31.8785 15.5729L30.444 16.9543C30.6298 17.1472 30.8527 17.3005 31.0991 17.4053C31.3456 17.5101 31.6107 17.5641 31.8785 17.5641C32.1463 17.5641 32.4114 17.5101 32.6579 17.4053C32.9044 17.3005 33.1272 17.1472 33.313 16.9543L31.8785 15.5729ZM18.5985 44.5825C18.1898 44.2464 17.6644 44.0864 17.1378 44.1377C16.6112 44.189 16.1266 44.4474 15.7905 44.8561C15.4544 45.2647 15.2944 45.7901 15.3457 46.3167C15.3971 46.8433 15.6555 47.328 16.0641 47.664L18.5985 44.5825ZM6.22162 36.5889C6.34721 36.8184 6.51679 37.021 6.72066 37.185C6.92454 37.349 7.15872 37.4713 7.40985 37.5448C7.66097 37.6183 7.92411 37.6416 8.18425 37.6135C8.44439 37.5853 8.69643 37.5061 8.92598 37.3805C9.15553 37.2549 9.3581 37.0854 9.52212 36.8815C9.68613 36.6776 9.80839 36.4434 9.8819 36.1923C9.95541 35.9412 9.97874 35.678 9.95055 35.4179C9.92237 35.1578 9.84322 34.9057 9.71763 34.6762L6.22162 36.5889ZM7.30549 25.2348C7.30549 19.5232 10.5332 14.7308 14.9404 12.7145C19.2227 10.7566 24.9768 11.2746 30.444 16.9543L33.313 14.1942C26.8311 7.4545 19.2971 6.3414 13.2827 9.09093C7.40113 11.782 3.32068 18.0302 3.32068 25.2348H7.30549ZM22.5726 52.7646C23.9354 53.8379 25.3965 54.9802 26.8762 55.8462C28.3559 56.7123 30.0455 57.4136 31.8785 57.4136V53.4288C31.055 53.4288 30.088 53.11 28.8872 52.406C27.6838 51.7047 26.4379 50.7377 25.0406 49.6352L22.5726 52.7646ZM41.1844 52.7646C44.9726 49.776 49.8181 46.3544 53.617 42.0747C57.4876 37.7179 60.4363 32.3172 60.4363 25.2348H56.4515C56.4515 31.0739 54.0606 35.5714 50.639 39.4287C47.1456 43.3604 42.7438 46.4606 38.7164 49.6352L41.1844 52.7646ZM60.4363 25.2348C60.4363 18.0302 56.3585 11.782 50.4743 9.09093C44.4599 6.3414 36.9312 7.4545 30.444 14.1915L33.313 16.9543C38.7802 11.2773 44.5343 10.7566 48.8166 12.7145C53.2238 14.7308 56.4515 19.5205 56.4515 25.2348H60.4363ZM38.7164 49.6352C37.3191 50.7377 36.0732 51.7047 34.8698 52.406C33.6664 53.1073 32.702 53.4288 31.8785 53.4288V57.4136C33.7115 57.4136 35.4011 56.7096 36.8808 55.8462C38.3631 54.9802 39.8216 53.8379 41.1844 52.7646L38.7164 49.6352ZM25.0406 49.6352C22.926 47.9696 20.7768 46.3756 18.5985 44.5825L16.0641 47.664C18.269 49.4785 20.6015 51.2105 22.5726 52.7646L25.0406 49.6352ZM9.71763 34.6788C8.11713 31.7897 7.28648 28.5376 7.30549 25.2348H3.32068C3.32068 29.5862 4.43643 33.324 6.22162 36.5889L9.71763 34.6788Z" fill="#6D94C5"/>
</svg>
